<?xml version="1.0" encoding="UTF-8" ?>
<svg viewBox="0 0 33 24" xmlns="http://www.w3.org/2000/svg">
    <g fill="#4CB1FF">
        <path d="M4.762,24.001 C4.254,24.001 3.734,23.916 3.215,23.749 C1.053,23.052 -0.173,20.787 0.424,18.593 L2.164,13.225 C1.683,12.279 1.457,11.345 1.457,10.316 C1.457,6.625 4.462,3.733 8.299,3.733 C10.065,3.733 11.584,4.838 12.857,6 L19.909,6 C21.182,4.838 22.701,3.733 24.467,3.733 C28.368,3.733 31.309,6.465 31.309,10.088 C31.309,11.24 31.019,12.363 30.465,13.364 L32.113,18.52 C32.723,20.757 31.497,23.022 29.334,23.72 C28.91,23.855 28.472,23.925 28.03,23.925 C27.177,23.925 26.363,23.665 25.68,23.209 L25.664,23.334 L25.425,23.025 C24.977,22.676 24.597,22.237 24.317,21.73 L24.169,21.73 L23.951,20.986 L22.627,17.013 C21.854,16.912 20.929,16.774 20.128,16 L12.623,16 C11.772,16.795 10.794,16.962 9.897,17.073 L8.581,20.889 L8.582,20.889 C8.586,20.889 8.575,20.935 8.56,20.98 L8.505,21.139 L8.502,21.138 C7.92,22.963 6.538,24.001 4.762,24.001 L4.762,24.001 Z M8.299,5.733 C5.539,5.733 3.457,7.704 3.457,10.316 C3.457,11.133 3.659,11.844 4.112,12.621 L4.337,13.007 L2.34,19.164 C2.038,20.279 2.686,21.476 3.829,21.845 C4.149,21.948 4.463,22.001 4.762,22.001 C5.698,22.001 6.318,21.502 6.606,20.519 L7.607,20.679 L6.653,20.378 L6.691,20.236 L8.41,15.249 L9.454,15.112 C10.436,14.994 10.97,14.907 11.426,14.36 L11.726,14 L21.061,14 L21.361,14.386 C21.731,14.862 22.115,14.93 22.946,15.037 C23.143,15.062 23.343,15.089 23.547,15.123 L24.14,15.224 L25.933,20.47 C26.258,21.34 27.101,21.925 28.03,21.925 C28.263,21.925 28.496,21.889 28.721,21.815 C29.864,21.447 30.512,20.249 30.195,19.087 L28.277,13.091 L28.537,12.692 C29.042,11.916 29.309,11.016 29.309,10.088 C29.309,7.564 27.273,5.733 24.467,5.733 C23.263,5.733 22.033,6.741 20.988,7.727 L20.699,8 L12.067,8 L11.778,7.727 C10.733,6.741 9.503,5.733 8.299,5.733 L8.299,5.733 Z"></path>
        <path d="M17,8 C16.448,8 16,7.553 16,7 L16,1 C16,0.447 16.448,0 17,0 C17.552,0 18,0.447 18,1 L18,7 C18,7.553 17.552,8 17,8"></path>
        <path d="M22.822,13.652 C21.965,13.652 21.271,12.958 21.271,12.101 C21.271,11.244 21.965,10.549 22.822,10.549 C23.679,10.549 24.374,11.244 24.374,12.101 C24.374,12.958 23.679,13.652 22.822,13.652"></path>
        <path d="M25.926,10.549 C25.069,10.549 24.374,9.854 24.374,8.998 C24.374,8.14 25.069,7.446 25.926,7.446 C26.783,7.446 27.477,8.14 27.477,8.998 C27.477,9.854 26.783,10.549 25.926,10.549"></path>
        <path d="M8,14 C7.448,14 7,13.553 7,13 L7,9 C7,8.447 7.448,8 8,8 C8.552,8 9,8.447 9,9 L9,13 C9,13.553 8.552,14 8,14"></path>
        <path d="M10,12 L6,12 C5.448,12 5,11.553 5,11 C5,10.447 5.448,10 6,10 L10,10 C10.552,10 11,10.447 11,11 C11,11.553 10.552,12 10,12"></path>
    </g>
</svg>
