<?xml version="1.0" encoding="UTF-8"?>
<svg viewBox="0 0 32 23" xmlns="http://www.w3.org/2000/svg">
    <g transform="translate(1, 1)" stroke="#4CB1FF" stroke-width="2" fill="none">
        <path d="M25,10.1 L27,10.1 C28.6,10 29.8,8.6 29.8,6.9 C29.8,5.2 28.5,3.8 27,3.7 L25,3.7" transform="translate(-0.75, 0)"></path>
        <path d="M24.1,2.2 L24.1,7.1 C23.9,13 19,17.7 13.1,17.7 C7.2,17.7 2.4,13 2.1,7.1 L2.1,2.2"></path>
        <ellipse cx="13" cy="2.2" rx="11" ry="2.2"></ellipse>
        <path d="M20.6,14.4 C24.1,15.1 26.4,16.1 26.4,17.4 C26.4,19.4 20.5,21 13.2,21 C5.9,21 5.68434189e-14,19.4 5.68434189e-14,17.4 C5.68434189e-14,16.2 2.3,15.1 5.8,14.4"></path>
    </g>
</svg>
